<svg xmlns="http://www.w3.org/2000/svg" xmlns:xlink="http://www.w3.org/1999/xlink" width="105" zoomAndPan="magnify" viewBox="0 0 78.75 74.999997" height="100" preserveAspectRatio="xMidYMid meet" version="1.0"><path fill="#b92b16" d="M 75.921875 48.171875 L 75.921875 49.011719 C 75.921875 50.0625 75.652344 50.390625 73.96875 50.390625 L 69.941406 50.390625 C 68.554688 50.390625 67.992188 49.886719 67.992188 48.648438 L 67.992188 45.117188 C 67.992188 43.875 68.554688 43.371094 69.941406 43.371094 L 73.929688 43.371094 C 75.222656 43.371094 75.832031 43.511719 75.832031 44.789062 L 75.832031 45.476562 L 77.464844 45.476562 L 77.464844 44.414062 C 77.464844 43.230469 76.90625 41.816406 74.257812 41.816406 L 69.8125 41.816406 C 67.246094 41.816406 66.199219 42.914062 66.199219 45.59375 L 66.199219 48.167969 C 66.199219 50.851562 67.246094 51.945312 69.8125 51.945312 L 74.191406 51.945312 C 77.058594 51.945312 77.632812 50.84375 77.632812 49.0625 L 77.632812 48.171875 Z M 58.675781 41.921875 L 52.78125 51.839844 L 54.824219 51.839844 L 55.992188 49.855469 L 63.238281 49.855469 L 64.40625 51.839844 L 66.449219 51.839844 L 60.554688 41.921875 Z M 62.320312 48.300781 L 56.910156 48.300781 L 59.617188 43.722656 Z M 45.851562 49.199219 L 42.003906 41.902344 L 39.601562 41.902344 L 39.601562 51.824219 L 41.390625 51.824219 L 41.390625 44.367188 L 45.269531 51.828125 L 46.316406 51.8125 L 50.324219 44.378906 L 50.324219 51.824219 L 52.113281 51.824219 L 52.113281 41.902344 L 49.710938 41.902344 Z M 31.117188 41.921875 L 25.222656 51.839844 L 27.265625 51.839844 L 28.433594 49.855469 L 35.675781 49.855469 L 36.847656 51.839844 L 38.886719 51.839844 L 32.996094 41.921875 Z M 34.761719 48.300781 L 29.347656 48.300781 L 32.054688 43.722656 Z M 21.269531 41.921875 L 13.488281 41.921875 L 13.488281 51.839844 L 15.277344 51.839844 L 15.277344 48.125 L 21.230469 48.125 C 22.328125 48.125 22.84375 48.261719 22.84375 49.519531 L 22.84375 51.839844 L 24.554688 51.839844 L 24.554688 49.179688 C 24.554688 48.34375 24.25 47.777344 23.613281 47.445312 C 24.1875 47.207031 24.671875 46.703125 24.671875 45.609375 L 24.671875 44.839844 C 24.671875 42.949219 24.132812 41.921875 21.269531 41.921875 M 15.277344 43.476562 L 20.816406 43.476562 C 22.6875 43.476562 22.882812 43.820312 22.882812 44.609375 L 22.882812 45.464844 C 22.882812 46.167969 22.597656 46.570312 21.128906 46.570312 L 15.277344 46.570312 Z M 11.09375 46.535156 C 11.617188 46.234375 11.910156 45.730469 11.910156 45.074219 L 11.910156 44.269531 C 11.910156 43.394531 11.550781 41.921875 9.15625 41.921875 L 0.867188 41.921875 L 0.867188 51.839844 L 9.285156 51.839844 C 11.101562 51.839844 12.273438 50.957031 12.273438 49.582031 L 12.273438 48.464844 C 12.273438 47.476562 11.878906 46.832031 11.09375 46.535156 M 10.121094 45.0625 C 10.121094 45.449219 10.003906 45.960938 8.976562 45.960938 L 2.65625 45.960938 L 2.65625 43.476562 L 9.039062 43.476562 C 9.21875 43.476562 10.121094 43.511719 10.121094 44.207031 Z M 2.65625 47.515625 L 8.9375 47.515625 C 10.167969 47.515625 10.484375 47.742188 10.484375 48.609375 L 10.484375 49.285156 C 10.484375 49.902344 10.257812 50.289062 9.132812 50.289062 L 2.65625 50.289062 Z M 2.65625 47.515625 " fill-opacity="1" fill-rule="nonzero"/><path fill="#b92b16" d="M 60.855469 26.421875 C 59.859375 26.488281 58.058594 26.6875 56.730469 26.964844 C 55.617188 27.199219 53.433594 27.792969 51.757812 28.539062 C 50.253906 29.210938 46.921875 31.027344 46.375 31.277344 C 45.824219 31.53125 41.285156 33.804688 40.402344 34.183594 C 39.515625 34.5625 38.136719 35.34375 36.902344 35.183594 C 36.070312 35.078125 35.609375 34.949219 35.15625 34.546875 C 34.722656 34.15625 34.578125 33.96875 34.296875 33.550781 C 33.90625 32.96875 31.925781 30.382812 31.542969 29.730469 C 31.289062 29.289062 28.78125 25.191406 28.257812 24.496094 C 27.921875 24.046875 27.03125 23.285156 26.488281 23.125 C 24.855469 22.640625 23.808594 24.222656 23.492188 24.5625 C 23.0625 25.019531 22.226562 26.402344 21.804688 26.988281 C 21.378906 27.574219 20.136719 29.128906 19.75 29.597656 C 19.207031 30.25 17.300781 33.089844 16.957031 33.507812 C 16.6875 33.832031 16.375 34.132812 16.039062 34.121094 C 15.746094 34.113281 15.054688 33.46875 14.804688 33.085938 C 14.550781 32.710938 14 31.929688 13.382812 31.261719 C 12.945312 30.785156 11.035156 28.832031 10.445312 28.371094 C 9.855469 27.90625 9.449219 28.03125 8.925781 28.246094 C 8.402344 28.460938 7.480469 29.425781 7.097656 29.890625 C 6.71875 30.355469 3.226562 33.804688 2.761719 34.308594 C 2.300781 34.8125 1.324219 35.949219 1.164062 36.160156 C 1 36.371094 0.867188 36.582031 0.867188 36.792969 C 0.867188 37 1.203125 37.421875 1.710938 37.507812 C 2.214844 37.589844 2.921875 37.632812 3.203125 37.492188 C 3.421875 37.386719 3.648438 37.171875 3.855469 36.875 C 4.066406 36.578125 4.546875 35.894531 4.78125 35.667969 C 5.132812 35.324219 8.265625 32.289062 8.515625 31.953125 C 8.769531 31.617188 9.078125 31.320312 9.328125 31.320312 C 9.582031 31.320312 9.75 31.488281 9.835938 31.617188 C 9.917969 31.742188 10.230469 32.128906 10.347656 32.261719 C 10.523438 32.457031 10.980469 32.914062 11.144531 33.085938 C 11.535156 33.5 13.128906 35.898438 13.371094 36.203125 C 13.617188 36.503906 14.046875 37 14.257812 37.296875 C 14.507812 37.648438 14.976562 38.089844 15.183594 38.222656 C 15.457031 38.394531 15.820312 38.578125 16.167969 38.53125 C 16.546875 38.484375 16.933594 38.265625 17.144531 37.972656 C 17.355469 37.671875 18.144531 36.59375 18.410156 36.207031 C 18.65625 35.851562 19.308594 35.152344 19.855469 34.183594 C 20.402344 33.214844 21.246094 31.871094 21.75 31.28125 C 22.253906 30.691406 23.101562 29.609375 23.523438 28.980469 C 23.941406 28.347656 24.296875 27.914062 24.550781 27.578125 C 24.855469 27.171875 25.097656 27.070312 25.371094 26.945312 C 25.707031 26.792969 26.171875 26.863281 26.378906 27.039062 C 26.648438 27.269531 27.402344 28.367188 27.90625 29.289062 C 28.414062 30.214844 30.007812 32.292969 30.296875 32.675781 C 30.695312 33.210938 31.714844 34.433594 32.09375 34.941406 C 32.476562 35.445312 34.273438 37.828125 34.683594 38.25 C 35.070312 38.652344 35.828125 38.933594 36.585938 39.019531 C 37.34375 39.101562 38.675781 39.011719 39.871094 38.359375 C 41.0625 37.707031 44.949219 35.441406 46.121094 34.828125 C 47.054688 34.339844 50.453125 32.328125 51.921875 31.539062 C 52.394531 31.289062 53.582031 30.644531 53.859375 30.515625 C 54.761719 30.09375 56.128906 29.53125 56.855469 29.28125 C 58.339844 28.769531 60.160156 28.570312 61.6875 28.417969 C 62.53125 28.335938 64.292969 28.242188 65.214844 28.054688 C 65.484375 28 66.140625 27.746094 66.140625 27.3125 C 66.140625 26.230469 61.910156 26.347656 60.855469 26.421875 " fill-opacity="1" fill-rule="nonzero"/></svg>