<svg xmlns="http://www.w3.org/2000/svg" xmlns:xlink="http://www.w3.org/1999/xlink" width="174" zoomAndPan="magnify" viewBox="0 0 130.5 74.999997" height="100" preserveAspectRatio="xMidYMid meet" version="1.0"><defs><clipPath id="eb6e9d259e"><path d="M 19.367188 34.492188 L 24.199219 34.492188 L 24.199219 51.132812 L 19.367188 51.132812 Z M 19.367188 34.492188 " clip-rule="nonzero"/></clipPath><clipPath id="ea205f6695"><path d="M 19.441406 39.199219 L 19.441406 51.054688 L 24.132812 46.347656 L 24.132812 34.496094 Z M 19.441406 39.199219 " clip-rule="nonzero"/></clipPath><clipPath id="b970624c81"><path d="M 0.367188 0.492188 L 5.148438 0.492188 L 5.148438 17.066406 L 0.367188 17.066406 Z M 0.367188 0.492188 " clip-rule="nonzero"/></clipPath><clipPath id="d721a01a7b"><path d="M 0.441406 5.199219 L 0.441406 17.054688 L 5.132812 12.347656 L 5.132812 0.496094 Z M 0.441406 5.199219 " clip-rule="nonzero"/></clipPath><clipPath id="b529fc8b95"><rect x="0" width="6" y="0" height="18"/></clipPath><clipPath id="54917985b5"><path d="M 0 39.109375 L 4.765625 39.109375 L 4.765625 51.132812 L 0 51.132812 Z M 0 39.109375 " clip-rule="nonzero"/></clipPath><clipPath id="1fe5816536"><path d="M 0 43.824219 L 0 51.054688 L 4.691406 46.347656 L 4.691406 39.121094 Z M 0 43.824219 " clip-rule="nonzero"/></clipPath><clipPath id="d9c453a772"><path d="M 0 0.113281 L 4.765625 0.113281 L 4.765625 12.066406 L 0 12.066406 Z M 0 0.113281 " clip-rule="nonzero"/></clipPath><clipPath id="70862d0661"><path d="M 0 4.824219 L 0 12.054688 L 4.691406 7.347656 L 4.691406 0.121094 Z M 0 4.824219 " clip-rule="nonzero"/></clipPath><clipPath id="b2fe1c5749"><rect x="0" width="5" y="0" height="13"/></clipPath><clipPath id="2514ed73ee"><path d="M 5.625 30.734375 L 11.636719 30.734375 L 11.636719 51.132812 L 5.625 51.132812 Z M 5.625 30.734375 " clip-rule="nonzero"/></clipPath><clipPath id="eecc16e4ac"><path d="M 5.710938 36.632812 L 5.710938 51.054688 L 11.5625 45.203125 L 11.5625 30.832031 Z M 5.710938 36.632812 " clip-rule="nonzero"/></clipPath><clipPath id="e048b507fb"><path d="M 0.625 0.746094 L 6.636719 0.746094 L 6.636719 21.066406 L 0.625 21.066406 Z M 0.625 0.746094 " clip-rule="nonzero"/></clipPath><clipPath id="14e9880893"><path d="M 0.710938 6.632812 L 0.710938 21.054688 L 6.5625 15.203125 L 6.5625 0.832031 Z M 0.710938 6.632812 " clip-rule="nonzero"/></clipPath><clipPath id="d903ed5cd3"><rect x="0" width="7" y="0" height="22"/></clipPath><clipPath id="4886d00682"><path d="M 12.496094 23.867188 L 18.507812 23.867188 L 18.507812 51.132812 L 12.496094 51.132812 Z M 12.496094 23.867188 " clip-rule="nonzero"/></clipPath><clipPath id="73e41834e4"><path d="M 18.421875 23.929688 L 12.574219 29.78125 L 12.574219 51.054688 L 18.421875 45.203125 Z M 18.421875 23.929688 " clip-rule="nonzero"/></clipPath><clipPath id="37a3bc2b2a"><path d="M 0.496094 0.867188 L 6.507812 0.867188 L 6.507812 28.066406 L 0.496094 28.066406 Z M 0.496094 0.867188 " clip-rule="nonzero"/></clipPath><clipPath id="50fa5a5862"><path d="M 6.421875 0.929688 L 0.574219 6.78125 L 0.574219 28.054688 L 6.421875 22.203125 Z M 6.421875 0.929688 " clip-rule="nonzero"/></clipPath><clipPath id="79529a6992"><rect x="0" width="7" y="0" height="29"/></clipPath><clipPath id="ce5db45cb4"><path d="M 29.164062 30.832031 L 43.765625 30.832031 L 43.765625 35.144531 L 29.164062 35.144531 Z M 33.875 35.144531 L 39.054688 35.144531 L 39.054688 47.648438 L 33.875 47.648438 Z M 33.875 35.144531 " clip-rule="nonzero"/></clipPath><clipPath id="02f446eedc"><path d="M 0.164062 0.832031 L 14.765625 0.832031 L 14.765625 5.144531 L 0.164062 5.144531 Z M 4.875 5.144531 L 10.054688 5.144531 L 10.054688 17.648438 L 4.875 17.648438 Z M 4.875 5.144531 " clip-rule="nonzero"/></clipPath><clipPath id="08821268ae"><rect x="0" width="15" y="0" height="18"/></clipPath><clipPath id="3b633a72e6"><path d="M 42.445312 35.074219 L 55.878906 35.074219 L 55.878906 48 L 42.445312 48 Z M 42.445312 35.074219 " clip-rule="nonzero"/></clipPath><clipPath id="4e2b4ad1c3"><path d="M 49.136719 38.511719 C 47.371094 38.511719 47.132812 40.230469 47.132812 41.527344 C 47.132812 42.824219 47.367188 44.566406 49.136719 44.566406 C 50.90625 44.566406 51.140625 42.824219 51.140625 41.527344 C 51.140625 40.230469 50.90625 38.511719 49.136719 38.511719 M 49.136719 47.957031 C 44.542969 47.957031 42.472656 44.917969 42.472656 41.527344 C 42.472656 38.136719 44.542969 35.117188 49.136719 35.117188 C 53.730469 35.117188 55.800781 38.132812 55.800781 41.523438 C 55.800781 44.914062 53.726562 47.953125 49.136719 47.953125 " clip-rule="nonzero"/></clipPath><clipPath id="80ffb026d2"><path d="M 0.445312 0.0742188 L 13.878906 0.0742188 L 13.878906 12.960938 L 0.445312 12.960938 Z M 0.445312 0.0742188 " clip-rule="nonzero"/></clipPath><clipPath id="1b834d4828"><path d="M 7.136719 3.511719 C 5.371094 3.511719 5.132812 5.230469 5.132812 6.527344 C 5.132812 7.824219 5.367188 9.566406 7.136719 9.566406 C 8.90625 9.566406 9.140625 7.824219 9.140625 6.527344 C 9.140625 5.230469 8.90625 3.511719 7.136719 3.511719 M 7.136719 12.957031 C 2.542969 12.957031 0.472656 9.917969 0.472656 6.527344 C 0.472656 3.136719 2.542969 0.117188 7.136719 0.117188 C 11.730469 0.117188 13.800781 3.132812 13.800781 6.523438 C 13.800781 9.914062 11.726562 12.953125 7.136719 12.953125 " clip-rule="nonzero"/></clipPath><clipPath id="208d2dbea1"><rect x="0" width="14" y="0" height="13"/></clipPath><clipPath id="bc196500d6"><path d="M 57.800781 35.074219 L 70.597656 35.074219 L 70.597656 47.710938 L 57.800781 47.710938 Z M 57.800781 35.074219 " clip-rule="nonzero"/></clipPath><clipPath id="6d7168da84"><path d="M 57.824219 35.425781 L 62.324219 35.425781 L 62.324219 36.980469 L 62.371094 36.980469 C 63.242188 35.753906 64.492188 35.121094 66.351562 35.121094 C 68.542969 35.121094 70.542969 36.464844 70.542969 39.265625 L 70.542969 47.648438 L 65.882812 47.648438 L 65.882812 41.242188 C 65.882812 39.828125 65.71875 38.839844 64.351562 38.839844 C 63.550781 38.839844 62.492188 39.242188 62.492188 41.195312 L 62.492188 47.648438 L 57.824219 47.648438 Z M 57.824219 35.425781 " clip-rule="nonzero"/></clipPath><clipPath id="397ccb0eb2"><path d="M 0.800781 0.0742188 L 13.597656 0.0742188 L 13.597656 12.710938 L 0.800781 12.710938 Z M 0.800781 0.0742188 " clip-rule="nonzero"/></clipPath><clipPath id="390ff11f17"><path d="M 0.824219 0.425781 L 5.324219 0.425781 L 5.324219 1.980469 L 5.371094 1.980469 C 6.242188 0.753906 7.492188 0.121094 9.351562 0.121094 C 11.542969 0.121094 13.542969 1.464844 13.542969 4.265625 L 13.542969 12.648438 L 8.882812 12.648438 L 8.882812 6.242188 C 8.882812 4.828125 8.71875 3.839844 7.351562 3.839844 C 6.550781 3.839844 5.492188 4.242188 5.492188 6.195312 L 5.492188 12.648438 L 0.824219 12.648438 Z M 0.824219 0.425781 " clip-rule="nonzero"/></clipPath><clipPath id="4eea02b948"><rect x="0" width="14" y="0" height="13"/></clipPath><clipPath id="7cce73138a"><path d="M 72.515625 30.753906 L 85.871094 30.753906 L 85.871094 48 L 72.515625 48 Z M 72.515625 30.753906 " clip-rule="nonzero"/></clipPath><clipPath id="1d5b1f4094"><path d="M 79.257812 38.511719 C 77.585938 38.511719 77.207031 40.089844 77.207031 41.527344 C 77.207031 42.988281 77.582031 44.566406 79.257812 44.566406 C 80.933594 44.566406 81.308594 42.988281 81.308594 41.527344 C 81.308594 40.089844 80.933594 38.511719 79.257812 38.511719 M 85.804688 47.648438 L 81.308594 47.648438 L 81.308594 46.308594 L 81.261719 46.308594 C 80.671875 47.085938 79.964844 47.957031 77.679688 47.957031 C 74.21875 47.957031 72.546875 44.542969 72.546875 41.480469 C 72.546875 38.605469 73.65625 35.121094 77.753906 35.121094 C 79.144531 35.121094 80.390625 35.734375 81.097656 36.769531 L 81.144531 36.769531 L 81.144531 30.832031 L 85.808594 30.832031 Z M 85.804688 47.648438 " clip-rule="nonzero"/></clipPath><clipPath id="e6322c6b50"><path d="M 0.515625 0.753906 L 13.832031 0.753906 L 13.832031 17.960938 L 0.515625 17.960938 Z M 0.515625 0.753906 " clip-rule="nonzero"/></clipPath><clipPath id="414cbb9148"><path d="M 7.257812 8.511719 C 5.585938 8.511719 5.207031 10.089844 5.207031 11.527344 C 5.207031 12.988281 5.582031 14.566406 7.257812 14.566406 C 8.933594 14.566406 9.308594 12.988281 9.308594 11.527344 C 9.308594 10.089844 8.933594 8.511719 7.257812 8.511719 M 13.804688 17.648438 L 9.308594 17.648438 L 9.308594 16.308594 L 9.261719 16.308594 C 8.671875 17.085938 7.964844 17.957031 5.679688 17.957031 C 2.21875 17.957031 0.546875 14.542969 0.546875 11.480469 C 0.546875 8.605469 1.65625 5.121094 5.753906 5.121094 C 7.144531 5.121094 8.390625 5.734375 9.097656 6.769531 L 9.144531 6.769531 L 9.144531 0.832031 L 13.808594 0.832031 Z M 13.804688 17.648438 " clip-rule="nonzero"/></clipPath><clipPath id="e4c091f064"><rect x="0" width="14" y="0" height="18"/></clipPath><clipPath id="0b14905be9"><path d="M 87.550781 35.074219 L 100.90625 35.074219 L 100.90625 48 L 87.550781 48 Z M 87.550781 35.074219 " clip-rule="nonzero"/></clipPath><clipPath id="c22343adb7"><path d="M 95.789062 42.160156 C 95.222656 42.441406 94.589844 42.609375 93.953125 42.75 C 92.917969 42.984375 92.375 43.246094 92.375 44.070312 C 92.375 44.636719 92.988281 45.203125 93.835938 45.203125 C 94.894531 45.203125 95.71875 44.566406 95.789062 43.292969 Z M 100.265625 44.917969 C 100.265625 45.835938 100.3125 46.875 100.832031 47.648438 L 96.074219 47.648438 C 95.957031 47.320312 95.886719 46.824219 95.910156 46.496094 L 95.863281 46.496094 C 94.875 47.625 93.4375 47.957031 91.929688 47.957031 C 89.574219 47.957031 87.617188 46.828125 87.617188 44.257812 C 87.617188 40.394531 92.140625 40.535156 94.519531 40.089844 C 95.15625 39.972656 95.792969 39.785156 95.792969 39.007812 C 95.792969 38.183594 95.015625 37.875 94.261719 37.875 C 92.824219 37.875 92.542969 38.605469 92.519531 39.125 L 88.183594 39.125 C 88.324219 35.6875 91.574219 35.121094 94.472656 35.121094 C 100.3125 35.121094 100.265625 37.546875 100.265625 39.902344 Z M 100.265625 44.917969 " clip-rule="nonzero"/></clipPath><clipPath id="e831b69cda"><path d="M 0.550781 0.0742188 L 13.894531 0.0742188 L 13.894531 12.960938 L 0.550781 12.960938 Z M 0.550781 0.0742188 " clip-rule="nonzero"/></clipPath><clipPath id="57432cfc3a"><path d="M 8.789062 7.160156 C 8.222656 7.441406 7.589844 7.609375 6.953125 7.75 C 5.917969 7.984375 5.375 8.246094 5.375 9.070312 C 5.375 9.636719 5.988281 10.203125 6.835938 10.203125 C 7.894531 10.203125 8.71875 9.566406 8.789062 8.292969 Z M 13.265625 9.917969 C 13.265625 10.835938 13.3125 11.875 13.832031 12.648438 L 9.074219 12.648438 C 8.957031 12.320312 8.886719 11.824219 8.910156 11.496094 L 8.863281 11.496094 C 7.875 12.625 6.4375 12.957031 4.929688 12.957031 C 2.574219 12.957031 0.617188 11.828125 0.617188 9.257812 C 0.617188 5.394531 5.140625 5.535156 7.519531 5.089844 C 8.15625 4.972656 8.792969 4.785156 8.792969 4.007812 C 8.792969 3.183594 8.015625 2.875 7.261719 2.875 C 5.824219 2.875 5.542969 3.605469 5.519531 4.125 L 1.183594 4.125 C 1.324219 0.6875 4.574219 0.121094 7.472656 0.121094 C 13.3125 0.121094 13.265625 2.546875 13.265625 4.902344 Z M 13.265625 9.917969 " clip-rule="nonzero"/></clipPath><clipPath id="5e8d7bf400"><rect x="0" width="14" y="0" height="13"/></clipPath><clipPath id="c8beef23dc"><path d="M 102.1875 35.074219 L 115.222656 35.074219 L 115.222656 48 L 102.1875 48 Z M 102.1875 35.074219 " clip-rule="nonzero"/></clipPath><clipPath id="7be883de4f"><path d="M 110.628906 40.066406 C 110.582031 39.570312 110.417969 39.171875 110.109375 38.914062 C 109.828125 38.652344 109.425781 38.511719 108.933594 38.511719 C 107.144531 38.511719 106.882812 40.066406 106.882812 41.550781 C 106.882812 43.035156 107.140625 44.566406 108.933594 44.566406 C 109.945312 44.566406 110.652344 43.742188 110.746094 42.777344 L 115.199219 42.777344 C 114.75 46.097656 112.136719 47.957031 108.839844 47.957031 C 105.164062 47.957031 102.222656 45.414062 102.222656 41.550781 C 102.222656 37.6875 105.167969 35.121094 108.839844 35.121094 C 112.042969 35.121094 114.773438 36.699219 115.058594 40.066406 Z M 110.628906 40.066406 " clip-rule="nonzero"/></clipPath><clipPath id="54145bd064"><path d="M 0.1875 0.0742188 L 13.222656 0.0742188 L 13.222656 12.960938 L 0.1875 12.960938 Z M 0.1875 0.0742188 " clip-rule="nonzero"/></clipPath><clipPath id="d13db3d8d0"><path d="M 8.628906 5.066406 C 8.582031 4.570312 8.417969 4.171875 8.109375 3.914062 C 7.828125 3.652344 7.425781 3.511719 6.933594 3.511719 C 5.144531 3.511719 4.882812 5.066406 4.882812 6.550781 C 4.882812 8.035156 5.140625 9.566406 6.933594 9.566406 C 7.945312 9.566406 8.652344 8.742188 8.746094 7.777344 L 13.199219 7.777344 C 12.75 11.097656 10.136719 12.957031 6.839844 12.957031 C 3.164062 12.957031 0.222656 10.414062 0.222656 6.550781 C 0.222656 2.6875 3.167969 0.121094 6.839844 0.121094 C 10.042969 0.121094 12.773438 1.699219 13.058594 5.066406 Z M 8.628906 5.066406 " clip-rule="nonzero"/></clipPath><clipPath id="a4e5030731"><rect x="0" width="14" y="0" height="13"/></clipPath><clipPath id="3333e1f7a9"><path d="M 117.0625 30.753906 L 129.859375 30.753906 L 129.859375 47.710938 L 117.0625 47.710938 Z M 117.0625 30.753906 " clip-rule="nonzero"/></clipPath><clipPath id="49a892124a"><path d="M 117.128906 30.832031 L 117.128906 47.648438 L 121.792969 47.648438 L 121.792969 41.195312 C 121.792969 39.242188 122.851562 38.839844 123.652344 38.839844 C 125.019531 38.839844 125.183594 39.828125 125.183594 41.242188 L 125.183594 47.648438 L 129.847656 47.648438 L 129.847656 39.214844 C 129.824219 36.441406 127.835938 35.117188 125.65625 35.117188 C 123.679688 35.117188 122.640625 35.800781 121.839844 36.742188 L 121.792969 36.742188 L 121.792969 30.832031 Z M 117.128906 30.832031 " clip-rule="nonzero"/></clipPath><clipPath id="6c5331337f"><path d="M 0.0625 0.753906 L 12.859375 0.753906 L 12.859375 17.710938 L 0.0625 17.710938 Z M 0.0625 0.753906 " clip-rule="nonzero"/></clipPath><clipPath id="b1870d809a"><path d="M 0.128906 0.832031 L 0.128906 17.648438 L 4.792969 17.648438 L 4.792969 11.195312 C 4.792969 9.242188 5.851562 8.839844 6.652344 8.839844 C 8.019531 8.839844 8.183594 9.828125 8.183594 11.242188 L 8.183594 17.648438 L 12.847656 17.648438 L 12.847656 9.214844 C 12.824219 6.441406 10.835938 5.117188 8.65625 5.117188 C 6.679688 5.117188 5.640625 5.800781 4.839844 6.742188 L 4.792969 6.742188 L 4.792969 0.832031 Z M 0.128906 0.832031 " clip-rule="nonzero"/></clipPath><clipPath id="c8d89efa7f"><rect x="0" width="13" y="0" height="18"/></clipPath></defs><g clip-path="url(#eb6e9d259e)"><g clip-path="url(#ea205f6695)"><g transform="matrix(1, 0, 0, 1, 19, 34)"><g clip-path="url(#b529fc8b95)"><g clip-path="url(#b970624c81)"><g clip-path="url(#d721a01a7b)"><rect x="-47.71" width="187.92" fill="#b11015" height="107.999996" y="-50.499999" fill-opacity="1"/></g></g></g></g></g></g><g clip-path="url(#54917985b5)"><g clip-path="url(#1fe5816536)"><g transform="matrix(1, 0, 0, 1, 0, 39)"><g clip-path="url(#b2fe1c5749)"><g clip-path="url(#d9c453a772)"><g clip-path="url(#70862d0661)"><rect x="-28.71" width="187.92" fill="#b11015" height="107.999996" y="-55.499999" fill-opacity="1"/></g></g></g></g></g></g><g clip-path="url(#2514ed73ee)"><g clip-path="url(#eecc16e4ac)"><g transform="matrix(1, 0, 0, 1, 5, 30)"><g clip-path="url(#d903ed5cd3)"><g clip-path="url(#e048b507fb)"><g clip-path="url(#14e9880893)"><rect x="-33.71" width="187.92" fill="#b11015" height="107.999996" y="-46.499999" fill-opacity="1"/></g></g></g></g></g></g><g clip-path="url(#4886d00682)"><g clip-path="url(#73e41834e4)"><g transform="matrix(1, 0, 0, 1, 12, 23)"><g clip-path="url(#79529a6992)"><g clip-path="url(#37a3bc2b2a)"><g clip-path="url(#50fa5a5862)"><rect x="-40.71" width="187.92" fill="#b11015" height="107.999996" y="-39.499999" fill-opacity="1"/></g></g></g></g></g></g><g clip-path="url(#ce5db45cb4)"><g transform="matrix(1, 0, 0, 1, 29, 30)"><g clip-path="url(#08821268ae)"><g clip-path="url(#02f446eedc)"><rect x="-57.71" width="187.92" fill="#231f20" height="107.999996" y="-46.499999" fill-opacity="1"/></g></g></g></g><g clip-path="url(#3b633a72e6)"><g clip-path="url(#4e2b4ad1c3)"><g transform="matrix(1, 0, 0, 1, 42, 35)"><g clip-path="url(#208d2dbea1)"><g clip-path="url(#80ffb026d2)"><g clip-path="url(#1b834d4828)"><rect x="-70.71" width="187.92" fill="#231f20" height="107.999996" y="-51.499999" fill-opacity="1"/></g></g></g></g></g></g><g clip-path="url(#bc196500d6)"><g clip-path="url(#6d7168da84)"><g transform="matrix(1, 0, 0, 1, 57, 35)"><g clip-path="url(#4eea02b948)"><g clip-path="url(#397ccb0eb2)"><g clip-path="url(#390ff11f17)"><rect x="-85.71" width="187.92" fill="#231f20" height="107.999996" y="-51.499999" fill-opacity="1"/></g></g></g></g></g></g><g clip-path="url(#7cce73138a)"><g clip-path="url(#1d5b1f4094)"><g transform="matrix(1, 0, 0, 1, 72, 30)"><g clip-path="url(#e4c091f064)"><g clip-path="url(#e6322c6b50)"><g clip-path="url(#414cbb9148)"><rect x="-100.71" width="187.92" fill="#231f20" height="107.999996" y="-46.499999" fill-opacity="1"/></g></g></g></g></g></g><g clip-path="url(#0b14905be9)"><g clip-path="url(#c22343adb7)"><g transform="matrix(1, 0, 0, 1, 87, 35)"><g clip-path="url(#5e8d7bf400)"><g clip-path="url(#e831b69cda)"><g clip-path="url(#57432cfc3a)"><rect x="-115.71" width="187.92" fill="#231f20" height="107.999996" y="-51.499999" fill-opacity="1"/></g></g></g></g></g></g><g clip-path="url(#c8beef23dc)"><g clip-path="url(#7be883de4f)"><g transform="matrix(1, 0, 0, 1, 102, 35)"><g clip-path="url(#a4e5030731)"><g clip-path="url(#54145bd064)"><g clip-path="url(#d13db3d8d0)"><rect x="-130.71" width="187.92" fill="#231f20" height="107.999996" y="-51.499999" fill-opacity="1"/></g></g></g></g></g></g><g clip-path="url(#3333e1f7a9)"><g clip-path="url(#49a892124a)"><g transform="matrix(1, 0, 0, 1, 117, 30)"><g clip-path="url(#c8d89efa7f)"><g clip-path="url(#6c5331337f)"><g clip-path="url(#b1870d809a)"><rect x="-145.71" width="187.92" fill="#231f20" height="107.999996" y="-46.499999" fill-opacity="1"/></g></g></g></g></g></g></svg>