<svg width="168" height="40" viewBox="0 0 168 40" fill="none" xmlns="http://www.w3.org/2000/svg">
<path d="M9.93073 12.5828V6.36598L7.47313 4.77449L4.11273 8.05695C4.19632 8.18957 4.62431 8.88253 5.66754 10.5934C4.94531 11.2698 4.33007 12.5993 4.11273 13.1796H1.20373L0 17.6059L2.55792 18.9985V21.9825L0 23.3751L1.20373 27.7517H4.16289C4.76475 28.9453 5.38333 29.8737 5.61739 30.1887L31.6981 21.3857L27.5352 22.0323V0H20.363V17.5562H19.1091V5.6697L12.1877 8.90243V24.1708C12.1041 24.1874 11.1244 24.32 7.87437 24.7179C5.86816 18.7498 8.40936 14.1411 9.93073 12.5828Z" fill="#FF5C00"/>
<path d="M6.79245 32.5165L28.6628 23.9853C27.0503 25.3989 22.6056 29.124 17.7276 32.7161C23.4724 33.5143 27.1511 30.5708 29.3179 28.226C34.2363 21.5208 31.3672 14.8555 29.3179 12.361V6.12477L31.8376 4.52829L35.1635 7.82102L33.5509 10.4153L35.1635 12.9597H38.1366L39.2453 17.35L36.6249 18.7469V21.8401L39.2453 23.237L38.1366 27.4776C37.7503 27.4943 36.6148 27.5175 35.1635 27.4776C34.72 28.7548 33.8701 29.8723 33.5005 30.2715L35.1635 32.7161L31.8376 35.8591C31.5184 35.6596 30.5778 35.0709 29.3683 34.3125C28.7636 34.8314 27.3358 35.5598 26.6975 35.8591V38.8525L22.2126 40L20.9024 37.4556H17.7276L16.367 40L12.0333 38.8525V35.8591C9.69506 34.8613 7.56514 33.215 6.79245 32.5165Z" fill="#151515"/>
<path d="M53.176 8.568H59.032V31H53.176V8.568ZM75.4268 21.688C75.4268 20.7067 75.1601 19.928 74.6268 19.352C74.0934 18.776 73.3788 18.488 72.4828 18.488C71.4161 18.5093 70.5734 18.8933 69.9548 19.64C69.3574 20.3653 69.0588 21.304 69.0588 22.456H67.7148C67.7148 20.4933 68.0028 18.8507 68.5788 17.528C69.1548 16.184 69.9654 15.1707 71.0108 14.488C72.0774 13.8053 73.3468 13.464 74.8188 13.464C76.0774 13.464 77.1761 13.7413 78.1147 14.296C79.0748 14.8293 79.8108 15.5973 80.3228 16.6C80.8348 17.5813 81.0908 18.744 81.0908 20.088V31H75.4268V21.688ZM63.3948 13.72H69.0908V31H63.3948V13.72ZM91.4853 13.496C92.9573 13.496 94.2159 13.8587 95.2613 14.584C96.3066 15.288 97.1173 16.3013 97.6933 17.624C98.2693 18.9467 98.5573 20.504 98.5573 22.296C98.5573 24.1093 98.2799 25.688 97.7253 27.032C97.1706 28.376 96.3706 29.4107 95.3253 30.136C94.3013 30.8613 93.0639 31.224 91.6133 31.224C89.9919 31.224 88.5733 30.8507 87.3573 30.104C86.1413 29.3573 85.2026 28.312 84.5413 26.968C83.8799 25.624 83.5493 24.056 83.5493 22.264C83.5493 20.4933 83.8693 18.9573 84.5093 17.656C85.1706 16.3547 86.0986 15.3413 87.2933 14.616C88.5093 13.8693 89.9066 13.496 91.4853 13.496ZM93.0213 18.04C92.2746 18.04 91.6133 18.2213 91.0373 18.584C90.4826 18.9467 90.0453 19.4587 89.7253 20.12C89.4266 20.7813 89.2773 21.5493 89.2773 22.424C89.2773 23.2987 89.4266 24.0667 89.7253 24.728C90.0453 25.368 90.4826 25.88 91.0373 26.264C91.6133 26.6267 92.2746 26.808 93.0213 26.808C93.7679 26.808 94.4186 26.6267 94.9733 26.264C95.5279 25.88 95.9546 25.368 96.2533 24.728C96.5733 24.0667 96.7333 23.2987 96.7333 22.424C96.7333 21.5493 96.5733 20.7813 96.2533 20.12C95.9546 19.4587 95.5279 18.9467 94.9733 18.584C94.4186 18.2213 93.7679 18.04 93.0213 18.04ZM96.7333 7.256H102.429V31H96.7333V7.256ZM112.11 23.032C112.11 24.0133 112.355 24.792 112.846 25.368C113.358 25.944 114.041 26.232 114.894 26.232C115.918 26.2107 116.707 25.8267 117.262 25.08C117.838 24.3333 118.126 23.3947 118.126 22.264H119.47C119.47 24.2053 119.193 25.848 118.638 27.192C118.083 28.5147 117.294 29.5173 116.27 30.2C115.246 30.8827 114.019 31.224 112.59 31.224C111.353 31.224 110.265 30.9573 109.326 30.424C108.409 29.8693 107.694 29.1013 107.182 28.12C106.67 27.1387 106.414 25.976 106.414 24.632V13.72H112.11V23.032ZM118.126 13.72H123.822V31H118.126V13.72ZM126.48 13.72H133.008L135.792 18.616L138.8 13.72H145.04L139.568 22.136L145.424 31H138.864L135.792 25.688L132.368 31H126.096L131.984 22.136L126.48 13.72ZM154.203 24.856C154.203 25.5173 154.341 25.9973 154.619 26.296C154.896 26.5947 155.28 26.7333 155.771 26.712C156.069 26.712 156.4 26.6587 156.763 26.552C157.125 26.4453 157.509 26.3067 157.915 26.136L159.003 30.072C158.384 30.456 157.659 30.7547 156.827 30.968C156.016 31.16 155.184 31.256 154.331 31.256C153.221 31.256 152.229 31.0533 151.355 30.648C150.48 30.2213 149.787 29.6027 149.275 28.792C148.784 27.96 148.539 26.9467 148.539 25.752V9.752H154.203V24.856ZM146.139 14.52H158.683V18.232H146.139V14.52Z" fill="#151515"/>
<path d="M163.755 24.696C164.737 24.696 165.526 25.0053 166.123 25.624C166.742 26.2213 167.051 27 167.051 27.96C167.051 28.9413 166.742 29.7413 166.123 30.36C165.526 30.9573 164.737 31.256 163.755 31.256C162.795 31.256 162.006 30.9573 161.387 30.36C160.79 29.7413 160.491 28.9413 160.491 27.96C160.491 27 160.79 26.2213 161.387 25.624C162.006 25.0053 162.795 24.696 163.755 24.696Z" fill="#FF5C00"/>
</svg>
