<svg width="199" height="56" viewBox="0 0 199 56" fill="none" xmlns="http://www.w3.org/2000/svg">
<path d="M13.7225 17.3871V8.79663L10.3265 6.59747L5.68304 11.1332C5.79855 11.3165 6.38996 12.274 7.83151 14.6381C6.83352 15.5728 5.98337 17.41 5.68304 18.2118H1.66333L0 24.3282L3.53458 26.2524V30.3759L0 32.3001L1.66333 38.3478H5.75235C6.58402 39.9972 7.43878 41.28 7.76221 41.7153L43.801 29.5512L38.0487 30.4446V0H28.138V24.2595H26.4054V7.8345L16.8412 12.3015V33.3997C16.7257 33.4226 15.3719 33.6059 10.8809 34.1557C8.10873 25.9088 11.6202 19.5404 13.7225 17.3871Z" fill="#151515"/>
<path d="M9.38599 44.9319L39.6069 33.1434C37.3786 35.0966 31.2369 40.2441 24.4964 45.2076C32.4346 46.3107 37.5179 42.2433 40.5121 39.0032C47.3083 29.7378 43.3439 20.5276 40.5121 17.0806V8.4633L43.9938 6.25726L48.5896 10.8072L46.3613 14.392L48.5896 17.9079H52.698L54.2299 23.9745L50.609 25.9048V30.179L54.2299 32.1093L52.698 37.9691C52.1641 37.9921 50.595 38.0242 48.5896 37.9691C47.9768 39.7339 46.8023 41.2781 46.2917 41.8297L48.5896 45.2076L43.9938 49.5508C43.5528 49.275 42.2529 48.4616 40.5817 47.4137C39.7461 48.1306 37.7732 49.1372 36.8912 49.5508V53.6871L30.6938 55.2727L28.8833 51.7568H24.4964L22.6163 55.2727L16.6279 53.6871V49.5508C13.3969 48.172 10.4537 45.897 9.38599 44.9319Z" fill="white"/>
<path d="M72.448 17.56H78.82V37H72.448V17.56ZM75.652 8.632C76.636 8.632 77.44 8.956 78.064 9.604C78.712 10.228 79.036 11.032 79.036 12.016C79.036 12.976 78.712 13.78 78.064 14.428C77.44 15.052 76.636 15.364 75.652 15.364C74.668 15.364 73.852 15.052 73.204 14.428C72.58 13.78 72.268 12.976 72.268 12.016C72.268 11.032 72.58 10.228 73.204 9.604C73.852 8.956 74.668 8.632 75.652 8.632ZM97.2692 26.524C97.2692 25.42 96.9692 24.544 96.3692 23.896C95.7692 23.248 94.9652 22.924 93.9572 22.924C92.7572 22.948 91.8092 23.38 91.1132 24.22C90.4412 25.036 90.1052 26.092 90.1052 27.388H88.5932C88.5932 25.18 88.9172 23.332 89.5652 21.844C90.2132 20.332 91.1252 19.192 92.3012 18.424C93.5012 17.656 94.9292 17.272 96.5852 17.272C98.0012 17.272 99.2372 17.584 100.293 18.208C101.373 18.808 102.201 19.672 102.777 20.8C103.353 21.904 103.641 23.212 103.641 24.724V37H97.2692V26.524ZM83.7332 17.56H90.1412V37H83.7332V17.56ZM115.335 17.308C116.991 17.308 118.407 17.716 119.583 18.532C120.759 19.324 121.671 20.464 122.319 21.952C122.967 23.44 123.291 25.192 123.291 27.208C123.291 29.248 122.979 31.024 122.355 32.536C121.731 34.048 120.831 35.212 119.655 36.028C118.503 36.844 117.111 37.252 115.479 37.252C113.655 37.252 112.059 36.832 110.691 35.992C109.323 35.152 108.267 33.976 107.523 32.464C106.779 30.952 106.407 29.188 106.407 27.172C106.407 25.18 106.767 23.452 107.487 21.988C108.231 20.524 109.275 19.384 110.619 18.568C111.987 17.728 113.559 17.308 115.335 17.308ZM117.063 22.42C116.223 22.42 115.479 22.624 114.831 23.032C114.207 23.44 113.715 24.016 113.355 24.76C113.019 25.504 112.851 26.368 112.851 27.352C112.851 28.336 113.019 29.2 113.355 29.944C113.715 30.664 114.207 31.24 114.831 31.672C115.479 32.08 116.223 32.284 117.063 32.284C117.903 32.284 118.635 32.08 119.259 31.672C119.883 31.24 120.363 30.664 120.699 29.944C121.059 29.2 121.239 28.336 121.239 27.352C121.239 26.368 121.059 25.504 120.699 24.76C120.363 24.016 119.883 23.44 119.259 23.032C118.635 22.624 117.903 22.42 117.063 22.42ZM121.239 10.288H127.647V37H121.239V10.288ZM138.538 28.036C138.538 29.14 138.814 30.016 139.366 30.664C139.942 31.312 140.71 31.636 141.67 31.636C142.822 31.612 143.71 31.18 144.334 30.34C144.982 29.5 145.306 28.444 145.306 27.172H146.818C146.818 29.356 146.506 31.204 145.882 32.716C145.258 34.204 144.37 35.332 143.218 36.1C142.066 36.868 140.686 37.252 139.078 37.252C137.686 37.252 136.462 36.952 135.406 36.352C134.374 35.728 133.57 34.864 132.994 33.76C132.418 32.656 132.13 31.348 132.13 29.836V17.56H138.538V28.036ZM145.306 17.56H151.714V37H145.306V17.56ZM169.608 23.608C168.408 22.984 167.28 22.504 166.224 22.168C165.168 21.832 164.232 21.664 163.416 21.664C162.888 21.664 162.444 21.772 162.084 21.988C161.748 22.18 161.58 22.492 161.58 22.924C161.58 23.356 161.82 23.704 162.3 23.968C162.804 24.208 163.44 24.448 164.208 24.688C165 24.904 165.828 25.144 166.692 25.408C167.556 25.672 168.372 26.032 169.14 26.488C169.932 26.92 170.568 27.508 171.048 28.252C171.528 28.972 171.768 29.896 171.768 31.024C171.768 32.344 171.408 33.472 170.688 34.408C169.992 35.344 169.02 36.052 167.772 36.532C166.548 37.012 165.132 37.252 163.524 37.252C161.892 37.252 160.32 37.024 158.808 36.568C157.296 36.112 155.94 35.428 154.74 34.516L156.756 30.448C157.884 31.216 159.048 31.816 160.248 32.248C161.448 32.656 162.588 32.86 163.668 32.86C164.076 32.86 164.424 32.812 164.712 32.716C165.024 32.62 165.264 32.488 165.432 32.32C165.624 32.128 165.72 31.888 165.72 31.6C165.72 31.144 165.48 30.784 165 30.52C164.52 30.232 163.896 29.992 163.128 29.8C162.36 29.584 161.544 29.344 160.68 29.08C159.816 28.816 159 28.468 158.232 28.036C157.488 27.58 156.876 26.992 156.396 26.272C155.916 25.552 155.676 24.628 155.676 23.5C155.676 22.156 156.024 21.028 156.72 20.116C157.44 19.18 158.388 18.472 159.564 17.992C160.764 17.512 162.132 17.272 163.668 17.272C165.084 17.272 166.488 17.464 167.88 17.848C169.272 18.208 170.568 18.76 171.768 19.504L169.608 23.608ZM182.482 30.088C182.482 30.832 182.638 31.372 182.95 31.708C183.262 32.044 183.694 32.2 184.246 32.176C184.582 32.176 184.954 32.116 185.362 31.996C185.77 31.876 186.202 31.72 186.658 31.528L187.882 35.956C187.186 36.388 186.37 36.724 185.434 36.964C184.522 37.18 183.586 37.288 182.626 37.288C181.378 37.288 180.262 37.06 179.278 36.604C178.294 36.124 177.514 35.428 176.938 34.516C176.386 33.58 176.11 32.44 176.11 31.096V13.096H182.482V30.088ZM173.41 18.46H187.522V22.636H173.41V18.46Z" fill="white"/>
<path d="M193.229 29.908C194.333 29.908 195.221 30.256 195.893 30.952C196.589 31.624 196.937 32.5 196.937 33.58C196.937 34.684 196.589 35.584 195.893 36.28C195.221 36.952 194.333 37.288 193.229 37.288C192.149 37.288 191.261 36.952 190.565 36.28C189.893 35.584 189.557 34.684 189.557 33.58C189.557 32.5 189.893 31.624 190.565 30.952C191.261 30.256 192.149 29.908 193.229 29.908Z" fill="#151515"/>
<path d="M75 47H104" stroke="#151515" stroke-width="4" stroke-linecap="round"/>
</svg>
