<svg width="224" height="60" viewBox="0 0 224 60" fill="none" xmlns="http://www.w3.org/2000/svg">
<path d="M14.8961 18.8741V9.54897L11.2097 7.16173L6.1691 12.0854C6.29448 12.2844 6.93647 13.3238 8.50131 15.8901C7.41796 16.9047 6.4951 18.899 6.1691 19.7694H1.80559L0 26.4089L3.83688 28.4977V32.9738L0 35.0626L1.80559 41.6276H6.24433C7.14712 43.418 8.07499 44.8105 8.42608 45.283L47.5472 32.0786L41.3028 33.0484V0H30.5445V26.3343H28.6637V8.50455L18.2816 13.3536V36.2563C18.1562 36.2811 16.6866 36.4801 11.8116 37.0769C8.80224 28.1247 12.614 21.2117 14.8961 18.8741Z" fill="#FF5C00"/>
<path d="M10.1887 48.7748L42.9943 35.9781C40.5755 38.0984 33.9085 43.686 26.5915 49.0741C35.2086 50.2715 40.7266 45.8563 43.977 42.339C51.3544 32.2812 47.0509 22.2833 43.977 18.5415V9.18719L47.7564 6.79248L52.7453 11.7316L50.3264 15.623L52.7453 19.4396H57.205L58.868 26.025L54.9373 28.1204V32.7602L58.868 34.8555L57.205 41.2165C56.6255 41.2414 54.9222 41.2764 52.7453 41.2165C52.0801 43.1323 50.8051 44.8086 50.2508 45.4072L52.7453 49.0741L47.7564 53.7887C47.2777 53.4894 45.8667 52.6063 44.0525 51.4689C43.1455 52.2471 41.0038 53.3397 40.0463 53.7887V58.2788L33.3189 60L31.3536 56.1835H26.5915L24.5506 60L18.05 58.2788V53.7887C14.5426 52.292 11.3478 49.8225 10.1887 48.7748Z" fill="white"/>
<path d="M79.22 16.46H86.54V44.5H79.22V16.46ZM107.033 32.86C107.033 31.6333 106.7 30.66 106.033 29.94C105.367 29.22 104.473 28.86 103.353 28.86C102.02 28.8867 100.967 29.3667 100.193 30.3C99.4468 31.2067 99.0734 32.38 99.0734 33.82H97.3934C97.3934 31.3667 97.7534 29.3133 98.4734 27.66C99.1934 25.98 100.207 24.7133 101.513 23.86C102.847 23.0067 104.433 22.58 106.273 22.58C107.847 22.58 109.22 22.9267 110.393 23.62C111.593 24.2867 112.513 25.2467 113.153 26.5C113.793 27.7267 114.113 29.18 114.113 30.86V44.5H107.033V32.86ZM91.9934 22.9H99.1134V44.5H91.9934V22.9ZM127.107 22.62C128.947 22.62 130.52 23.0733 131.827 23.98C133.133 24.86 134.147 26.1267 134.867 27.78C135.587 29.4333 135.947 31.38 135.947 33.62C135.947 35.8867 135.6 37.86 134.907 39.54C134.213 41.22 133.213 42.5133 131.907 43.42C130.627 44.3267 129.08 44.78 127.267 44.78C125.24 44.78 123.467 44.3133 121.947 43.38C120.427 42.4467 119.253 41.14 118.427 39.46C117.6 37.78 117.187 35.82 117.187 33.58C117.187 31.3667 117.587 29.4467 118.387 27.82C119.213 26.1933 120.373 24.9267 121.867 24.02C123.387 23.0867 125.133 22.62 127.107 22.62ZM129.027 28.3C128.093 28.3 127.267 28.5267 126.547 28.98C125.853 29.4333 125.307 30.0733 124.907 30.9C124.533 31.7267 124.347 32.6867 124.347 33.78C124.347 34.8733 124.533 35.8333 124.907 36.66C125.307 37.46 125.853 38.1 126.547 38.58C127.267 39.0333 128.093 39.26 129.027 39.26C129.96 39.26 130.773 39.0333 131.467 38.58C132.16 38.1 132.693 37.46 133.067 36.66C133.467 35.8333 133.667 34.8733 133.667 33.78C133.667 32.6867 133.467 31.7267 133.067 30.9C132.693 30.0733 132.16 29.4333 131.467 28.98C130.773 28.5267 129.96 28.3 129.027 28.3ZM133.667 14.82H140.787V44.5H133.667V14.82ZM152.888 34.54C152.888 35.7667 153.194 36.74 153.808 37.46C154.448 38.18 155.301 38.54 156.368 38.54C157.648 38.5133 158.634 38.0333 159.328 37.1C160.048 36.1667 160.408 34.9933 160.408 33.58H162.088C162.088 36.0067 161.741 38.06 161.048 39.74C160.354 41.3933 159.368 42.6467 158.088 43.5C156.808 44.3533 155.274 44.78 153.488 44.78C151.941 44.78 150.581 44.4467 149.408 43.78C148.261 43.0867 147.368 42.1267 146.728 40.9C146.088 39.6733 145.768 38.22 145.768 36.54V22.9H152.888V34.54ZM160.408 22.9H167.528V44.5H160.408V22.9ZM170.85 22.9H179.01L182.49 29.02L186.25 22.9H194.05L187.21 33.42L194.53 44.5H186.33L182.49 37.86L178.21 44.5H170.37L177.73 33.42L170.85 22.9ZM205.503 36.82C205.503 37.6467 205.676 38.2467 206.023 38.62C206.37 38.9933 206.85 39.1667 207.463 39.14C207.836 39.14 208.25 39.0733 208.703 38.94C209.156 38.8067 209.636 38.6333 210.143 38.42L211.503 43.34C210.73 43.82 209.823 44.1933 208.783 44.46C207.77 44.7 206.73 44.82 205.663 44.82C204.276 44.82 203.036 44.5667 201.943 44.06C200.85 43.5267 199.983 42.7533 199.343 41.74C198.73 40.7 198.423 39.4333 198.423 37.94V17.94H205.503V36.82ZM195.423 23.9H211.103V28.54H195.423V23.9Z" fill="white"/>
<path d="M217.444 36.62C218.671 36.62 219.657 37.0067 220.404 37.78C221.177 38.5267 221.564 39.5 221.564 40.7C221.564 41.9267 221.177 42.9267 220.404 43.7C219.657 44.4467 218.671 44.82 217.444 44.82C216.244 44.82 215.257 44.4467 214.484 43.7C213.737 42.9267 213.364 41.9267 213.364 40.7C213.364 39.5 213.737 38.5267 214.484 37.78C215.257 37.0067 216.244 36.62 217.444 36.62Z" fill="#FF5C00"/>
</svg>
